# xmcd CD database file
#
# Track frame offsets:
#	170
#	35625
#	50564
#	63644
#	81185
#	131801
#	145095
#	177594
#	186026
#	206710
#	221905
#
# Disc length: 3051 seconds
#
# Revision: 0
# Processed by: cddbd v1.5.1PL0 Copyright (c) Steve Scherf et al.
# Submitted via: CDex 1.51
#
DISCID=b30be90b
DTITLE=Pierre Favre - Saxophones (Pierre Favre with Arte Quartet and Michel Godard)
DYEAR=2003
DGENRE=Jazz
TTITLE0=Sito
TTITLE1=Solar Wheel
TTITLE2=Music 4 and 7
TTITLE3=Stampede
TTITLE4=Anecdote
TTITLE5=Les jeux sont faits
TTITLE6=Lea
TTITLE7=Options
TTITLE8=Passage
TTITLE9=Hippopotamus
TTITLE10=Saxophones
EXTD=YEAR: 2003
EXTT0=
EXTT1=
EXTT2=
EXTT3=
EXTT4=
EXTT5=
EXTT6=
EXTT7=
EXTT8=
EXTT9=
EXTT10=
PLAYORDER=
